<?xml version="1.0" standalone="no"?>
<!DOCTYPE svg PUBLIC "-//W3C//DTD SVG 20010904//EN"
 "http://www.w3.org/TR/2001/REC-SVG-20010904/DTD/svg10.dtd">
<svg version="1.0" xmlns="http://www.w3.org/2000/svg"
 width="400.000000pt" height="400.000000pt" viewBox="0 0 400.000000 400.000000"
 preserveAspectRatio="xMidYMid meet">
<metadata>
Created by potrace 1.11, written by Peter Selinger 2001-2013
</metadata>
<g transform="translate(0.000000,400.000000) scale(0.100000,-0.100000)"
fill="#000000" stroke="none">
<path d="M0 2000 l0 -2000 2000 0 2000 0 0 2000 0 2000 -2000 0 -2000 0 0
-2000z m3192 1183 l258 -258 -465 -465 -465 -465 466 -465 466 -465 -259 -252
c-142 -139 -260 -253 -263 -253 -3 0 -212 207 -465 460 l-460 460 -467 -467
-468 -468 -260 260 -260 260 467 468 468 469 -465 458 -465 459 257 258 258
258 463 -463 462 -462 465 465 c256 256 467 465 470 465 3 0 121 -116 262
-257z"/>
</g>
</svg>
